<svg xmlns="http://www.w3.org/2000/svg" xml:space="preserve" fill-rule="evenodd" stroke-linejoin="round" stroke-miterlimit="2" clip-rule="evenodd" viewBox="0 0 383 110">
  <g fill-rule="nonzero">
    <path fill="#002147" d="M50.85 99.25a5.28 5.28 0 1 1 10.5.91 5.3 5.3 0 0 1-6.4 4.71 5.3 5.3 0 0 1-4.1-5.62m-11.14 1.65A5.34 5.34 0 0 1 37 93.94a5.26 5.26 0 1 1 9.66 4.22 5.3 5.3 0 0 1-6.94 2.74"/>
    <path fill="#ffd13a" d="M65.7 99.83a5.3 5.3 0 0 1 5.11-6.56 5.29 5.29 0 0 1 1.25 10.44q-1.19.3-2.39.03a5.3 5.3 0 0 1-3.98-3.91"/>
    <path fill="#002147" d="M25.89 91.92a5.3 5.3 0 0 1 3.55-9.22c1.3 0 2.57.49 3.54 1.37a5.28 5.28 0 1 1-7.1 7.85"/>
    <path fill="#ffb700" d="M79.91 95.58a5.35 5.35 0 0 1 1.6-7.32 5.24 5.24 0 0 1 7.29 1.6 5.33 5.33 0 0 1-1.6 7.33v-.01a5.2 5.2 0 0 1-7.29-1.6"/>
    <path fill="#002147" d="M15.68 78.93a5.35 5.35 0 0 1 2.05-7.2 5.24 5.24 0 0 1 7.82 4.64 5.3 5.3 0 0 1-6.4 5.18 5.3 5.3 0 0 1-3.47-2.62"/>
    <path fill="#ff7c00" d="M92.03 86.94a5.36 5.36 0 0 1-.89-7.45 5.3 5.3 0 0 1 7.4-.89 5.33 5.33 0 0 1 .88 7.45 5.23 5.23 0 0 1-7.4.89"/>
    <path fill="#002147" d="M10.17 63.32q-.08-.46-.08-.92a5.3 5.3 0 0 1 5.28-5.3 5.29 5.29 0 1 1-1.14 10.47 5.3 5.3 0 0 1-4.06-4.25"/>
    <path fill="#ff7c00" d="M100.61 74.76a5.34 5.34 0 0 1-3.27-6.74h.01l.04-.12a5.3 5.3 0 0 1 6.68-3.33 5.3 5.3 0 0 1 3.3 6.72q0 .06-.03.1l-.02.08a5.3 5.3 0 0 1-6.7 3.3"/>
    <path fill="#40b5ff" d="M10.07 46.72a5.3 5.3 0 0 1 5.19-4.36 5.3 5.3 0 0 1 5.22 6.07 5.3 5.3 0 0 1-6.34 4.32 5.33 5.33 0 0 1-4.07-6.03"/>
    <path fill="#f20c51" d="M99.46 55v-.04a5.3 5.3 0 0 1 5.23-5.3h.05a5.3 5.3 0 1 1-1.15 10.48A5.3 5.3 0 0 1 99.46 55"/>
    <path fill="#5971f2" d="M17.54 38.2a5.3 5.3 0 0 1 5.01-9.31 5.3 5.3 0 0 1-3.64 9.84 5 5 0 0 1-1.37-.52"/>
    <path fill="#f20c51" d="M97.19 42.15a5.34 5.34 0 0 1 3.2-6.77 5.3 5.3 0 0 1 3.53 9.99 5.3 5.3 0 0 1-6.73-3.22"/>
    <path fill="#5324b3" d="M25.23 25.45a5.33 5.33 0 0 1 .36-7.48 5.26 5.26 0 0 1 8.82 3.91A5.3 5.3 0 0 1 28 27.06a5.3 5.3 0 0 1-2.77-1.6"/>
    <path fill="#ff7cff" d="M90.87 30.7a5.32 5.32 0 0 1 4.16-8.55c1.59 0 3.1.72 4.1 1.96a5.35 5.35 0 0 1-.85 7.45 5.24 5.24 0 0 1-7.4-.85"/>
    <path fill="#5324b3" d="M36.7 15.96a5.3 5.3 0 0 1 4.84-7.4 5.32 5.32 0 0 1 2.09 10.17 5.27 5.27 0 0 1-6.93-2.77"/>
    <path fill="#ff7cff" d="M81.22 21.91a5.35 5.35 0 0 1-1.59-7.32 5.27 5.27 0 1 1 8.87 5.74 5.27 5.27 0 0 1-7.28 1.58"/>
    <path fill="#9b54e6" d="m50.59 10.71-.02-.4A5.3 5.3 0 0 1 55.84 5a5.31 5.31 0 0 1 .42 10.59q-.78.05-1.55-.12a5.3 5.3 0 0 1-4.12-4.76m18.66 5.98a5.3 5.3 0 0 1 2.58-10.27 5.3 5.3 0 0 1-2.44 10.31q-.07 0-.14-.04"/>
    <path fill="#002147" d="M58.62 92.56a3.72 3.72 0 1 1 .25-7.42 3.7 3.7 0 0 1 3.55 3.83 3.7 3.7 0 0 1-3.8 3.59"/>
    <path fill="#ffd13a" d="M65.76 88.57a3.73 3.73 0 0 1 2.53-4.6q.46-.12.95-.12a3.72 3.72 0 0 1 1.07 7.26 3.7 3.7 0 0 1-4.55-2.54"/>
    <path fill="#002147" d="M47.06 90.33a3.7 3.7 0 0 1-2.24-4.73 3.67 3.67 0 0 1 4.7-2.25 3.72 3.72 0 0 1-1.23 7.2q-.64 0-1.23-.22"/>
    <path fill="#ffb700" d="M75.89 85.12a3.7 3.7 0 0 1 1-5.15 3.7 3.7 0 0 1 5.12 1.02 3.74 3.74 0 0 1-1 5.14q-.78.52-1.72.6a3.7 3.7 0 0 1-3.4-1.61"/>
    <path fill="#002147" d="M36.7 84.7a3.7 3.7 0 0 1-.7-5.2 3.7 3.7 0 0 1 5.18-.71 3.75 3.75 0 0 1 .7 5.2 3.67 3.67 0 0 1-5.18.7"/>
    <path fill="#ff7c00" d="M84.47 78.7a3.74 3.74 0 0 1-.64-5.2 3.66 3.66 0 0 1 5.18-.65 3.74 3.74 0 0 1 .64 5.2 3.66 3.66 0 0 1-5.18.65"/>
    <path fill="#002147" d="M28.55 76.13a3.72 3.72 0 0 1 3.03-5.83 3.7 3.7 0 0 1 3.7 3.72 3.7 3.7 0 0 1-3.36 3.7 3.7 3.7 0 0 1-3.37-1.59"/>
    <path fill="#ff7c00" d="M90.62 69.89a3.7 3.7 0 0 1-2.24-4.74l.04-.09a3.7 3.7 0 1 1 6.94 2.48q0 .06-.03.1a3.7 3.7 0 0 1-4.71 2.25"/>
    <path fill="#002147" d="M23.42 65.47a3.73 3.73 0 0 1 3.53-4.79 3.7 3.7 0 0 1 3.68 3.72 3.7 3.7 0 0 1-3.36 3.68 3.7 3.7 0 0 1-3.85-2.6"/>
    <path fill="#f20c51" d="M93.73 59.5a3.7 3.7 0 0 1-3.6-3.8 3.73 3.73 0 0 1 3.76-3.62c2 .04 3.6 1.7 3.6 3.7v.08h.02a3.74 3.74 0 0 1-3.36 3.62q-.21.03-.42.02"/>
    <path fill="#40b5ff" d="M25.42 57.5a3.7 3.7 0 0 1-3.61-3.7v-.09a3.7 3.7 0 0 1 3.78-3.61 3.7 3.7 0 0 1-.17 7.4"/>
    <path fill="#f20c51" d="M88.82 46.27a3.73 3.73 0 0 1 3.53-4.78 3.72 3.72 0 0 1 0 7.41 3.7 3.7 0 0 1-3.53-2.63"/>
    <path fill="#5971f2" d="M26.2 46.78a3.74 3.74 0 0 1-2.24-4.74 3.7 3.7 0 0 1 3.45-2.4 3.72 3.72 0 0 1 3.5 4.9 3.7 3.7 0 0 1-4.7 2.24"/>
    <path fill="#ff7cff" d="M84.67 37.7a3.7 3.7 0 0 1 .92-5.17 3.7 3.7 0 0 1 5.8 3.06 3.7 3.7 0 0 1-3.36 3.68 3.7 3.7 0 0 1-3.36-1.57"/>
    <path fill="#5971f2" d="M30.28 36.84a3.76 3.76 0 0 1-.65-5.22 3.7 3.7 0 0 1 5.18-.64 3.74 3.74 0 0 1 .65 5.2 3.67 3.67 0 0 1-5.18.66"/>
    <path fill="#ff7cff" d="M78.1 30.81a3.7 3.7 0 1 1 5.93-2.95c0 1.9-1.47 3.52-3.36 3.7a3.7 3.7 0 0 1-2.57-.75"/>
    <path fill="#5324b3" d="M37.26 28.69a3.75 3.75 0 0 1 1-5.16 3.7 3.7 0 0 1 4.13 6.16 3.67 3.67 0 0 1-5.13-1"/>
    <path fill="#9b54e6" d="M69.74 26.28a3.71 3.71 0 0 1 2.47-7 3.71 3.71 0 0 1-2.47 7"/>
    <path fill="#5324b3" d="M46.42 23.12a3.73 3.73 0 0 1 2.53-4.59 3.71 3.71 0 1 1 1.35 7.27 3.7 3.7 0 0 1-3.88-2.68"/>
    <path fill="#9b54e6" d="M60.4 24.49a3.72 3.72 0 1 1 .12 0z"/>
    <path fill="#002147" d="M47.23 79.75a3.1 3.1 0 0 1-1.36-4.12 3.05 3.05 0 1 1 5.46 2.75 3.05 3.05 0 0 1-4.1 1.37m8.23-.28a3.07 3.07 0 0 1 3.2-2.92 3.06 3.06 0 0 1 2.89 3.21 3.07 3.07 0 0 1-3.2 2.92 3.1 3.1 0 0 1-2.9-3.21m-17.22-6.9a3.07 3.07 0 0 1 2.34-5.04 3.06 3.06 0 1 1-.94 5.98 3 3 0 0 1-1.4-.95"/>
    <path fill="#ffd13a" d="M65.77 79.08a3.07 3.07 0 0 1 1.74-3.96 3.06 3.06 0 1 1 1.1 5.92 3 3 0 0 1-2.84-1.96"/>
    <path fill="#002147" d="M32.84 62.35a3.1 3.1 0 0 1 2.1-3.79 3.06 3.06 0 1 1-2.1 3.8"/>
    <path fill="#ff7c00" d="M75.02 74.5a3.1 3.1 0 0 1-.08-4.32l.08-.07a3.04 3.04 0 0 1 4.3-.07 3.1 3.1 0 0 1 .09 4.32l-.08.09a3.03 3.03 0 0 1-4.31.04"/>
    <path fill="#40b5ff" d="M32.02 50.82a3.1 3.1 0 0 1 3.02-2.73 3.07 3.07 0 0 1 3.01 3.56 3.06 3.06 0 0 1-3.96 2.5A3.1 3.1 0 0 1 32 50.83"/>
    <path fill="#ff7c00" d="M81.6 66.4a3.1 3.1 0 0 1-1.84-3.92 3.04 3.04 0 0 1 5.92 1.04q0 .53-.18 1.04v-.01a3.06 3.06 0 0 1-3.9 1.85"/>
    <path fill="#5971f2" d="M36.9 44.16a3.08 3.08 0 0 1 1.69-5.63q.83 0 1.56.43a3.1 3.1 0 0 1 .95 4.24 3.04 3.04 0 0 1-4.2.96"/>
    <path fill="#f20c51" d="M80.96 53.54v-.22a3.07 3.07 0 0 1 3.06-3.07 3.05 3.05 0 0 1 3.03 3.07 3.07 3.07 0 0 1-3.97 2.92 3.1 3.1 0 0 1-2.12-2.7"/>
    <path fill="#5324b3" d="M43.13 35.89a3.08 3.08 0 0 1 2.57-4.7c1 0 1.93.48 2.5 1.3a3.07 3.07 0 0 1-3.47 4.62 3 3 0 0 1-1.6-1.22"/>
    <path fill="#ff7cff" d="M78.47 44.87a3.06 3.06 0 0 1 2.7-4.5c1.12 0 2.15.62 2.68 1.62a3.1 3.1 0 0 1-1.25 4.15 3.06 3.06 0 0 1-4.13-1.27"/>
    <path fill="#5324b3" d="M52.19 30.94a3.1 3.1 0 0 1 2.52-3.53 3.07 3.07 0 0 1 .97 6.06h.01q-.72.11-1.42-.1a3.1 3.1 0 0 1-2.08-2.43"/>
    <path fill="#9b54e6" d="M62.47 30.15a3.07 3.07 0 0 1 3.73-2.2 3.1 3.1 0 0 1 2.18 3.75 3.06 3.06 0 0 1-3.72 2.2l-.17-.05a3.1 3.1 0 0 1-2.02-3.7"/>
    <path fill="#ff7cff" d="M72.7 37.93a3.1 3.1 0 0 1-.5-4.31 3.04 3.04 0 0 1 4.28-.5 3.1 3.1 0 0 1 .5 4.31 3.06 3.06 0 0 1-4.28.5"/>
  </g>
  <path fill="#002147" fill-rule="nonzero" d="M128.6 66.85q-3.58 0-6.18-1.59a10.3 10.3 0 0 1-4-4.59Q117 57.68 117 53.43a17 17 0 0 1 1.42-7.3 10.6 10.6 0 0 1 4.03-4.62 11.5 11.5 0 0 1 6.13-1.6q3.52 0 6.1 1.6a10.5 10.5 0 0 1 4 4.63 17 17 0 0 1 1.4 7.3q0 4.23-1.4 7.23a10.4 10.4 0 0 1-3.98 4.58 11.4 11.4 0 0 1-6.12 1.6m0-3.32q2.28 0 3.9-1.05t2.47-3.28q.86-2.24.86-5.71 0-3.57-.87-5.84a6.7 6.7 0 0 0-2.48-3.34 7 7 0 0 0-3.89-1.08 7 7 0 0 0-3.9 1.09 7 7 0 0 0-2.53 3.35q-.9 2.27-.89 5.82 0 3.5.89 5.72a6.7 6.7 0 0 0 2.53 3.27q1.64 1.05 3.9 1.05m13.88 8.8v-24.6h3.88l.03 3.12a7 7 0 0 1 2.19-2.35 6 6 0 0 1 1.72-.82 7 7 0 0 1 2.15-.31 7.4 7.4 0 0 1 3.9 1.02 7 7 0 0 1 2.65 3.14q.95 2.11.95 5.36t-.95 5.47a7.3 7.3 0 0 1-2.7 3.34 7.5 7.5 0 0 1-4.18 1.14 6.2 6.2 0 0 1-3.71-1.19 7 7 0 0 1-1.21-1.16q-.47-.58-.82-1.24v9.06zm8.83-8.44a4.4 4.4 0 0 0 3.54-1.67q1.38-1.68 1.39-5.25 0-3.06-1.28-4.85a4.2 4.2 0 0 0-3.65-1.79q-2.45 0-3.7 1.86a8.4 8.4 0 0 0-1.25 4.78q0 1.9.55 3.47a5.7 5.7 0 0 0 1.66 2.51q1.1.94 2.74.94m19.18 2.96a9.4 9.4 0 0 1-4.7-1.15 8 8 0 0 1-3.16-3.3 11 11 0 0 1-1.14-5.09q0-2.91 1.04-5.16a8 8 0 0 1 2.99-3.5 8.5 8.5 0 0 1 4.71-1.27q2.7 0 4.57 1.16a7.3 7.3 0 0 1 2.83 3.25q.96 2.1.96 4.94v1.29h-13.2a7.5 7.5 0 0 0 .55 3.02 4.7 4.7 0 0 0 1.67 2.1q1.11.77 2.78.77 1.7 0 2.91-.76a3.6 3.6 0 0 0 1.6-2.27h3.6a6.3 6.3 0 0 1-1.54 3.27q-1.22 1.35-2.92 2.02a10 10 0 0 1-3.55.68m-5.1-11.35h9.5q0-1.47-.5-2.67a4 4 0 0 0-1.56-1.9 4.6 4.6 0 0 0-2.62-.7A4.4 4.4 0 0 0 165.9 53a6 6 0 0 0-.54 2.5m15.8 10.99V47.74h3.8v2.7a6 6 0 0 1 3.12-2.52 8 8 0 0 1 2.62-.41q1.77 0 3.26.7 1.5.69 2.4 2.17t.9 3.81v12.3h-3.87V54.6q0-2.01-1.08-2.99a4 4 0 0 0-2.79-.98q-1.12 0-2.17.38-1.04.39-1.67 1.15a3 3 0 0 0-.63 1.93v12.38zm19.97 0V40.27h9.08q2.8 0 5.03.96a8 8 0 0 1 3.5 2.83 8 8 0 0 1 1.27 4.59q0 2.6-1.16 4.45a7.5 7.5 0 0 1-3.27 2.8q-2.1.98-4.85.98h-5.65v9.6zm3.93-12.78h5.56q2.5 0 4.08-1.45a5 5 0 0 0 1.58-3.83q0-2.43-1.63-3.73a6.5 6.5 0 0 0-4.17-1.3h-5.42zm16.8 12.77V47.75h3.72v3.84q.47-1.37 1.31-2.3a6 6 0 0 1 1.97-1.42 6 6 0 0 1 3.1-.44q.34.05.54.16v3.73q-.3-.12-.6-.14l-.65-.06a8 8 0 0 0-2.25.13q-1 .22-1.74.73-.75.5-1.13 1.32a4.4 4.4 0 0 0-.39 1.92v11.27zm20.47.37a9.4 9.4 0 0 1-4.7-1.15 8 8 0 0 1-3.16-3.3 11 11 0 0 1-1.13-5.09q0-2.91 1.03-5.16a8 8 0 0 1 3-3.5 8.5 8.5 0 0 1 4.7-1.27q2.7 0 4.57 1.16a7.3 7.3 0 0 1 2.83 3.25q.96 2.1.96 4.94v1.29h-13.2a7.5 7.5 0 0 0 .55 3.02q.56 1.34 1.68 2.1 1.11.77 2.78.77a5.4 5.4 0 0 0 2.9-.76 3.6 3.6 0 0 0 1.61-2.27h3.59a6.3 6.3 0 0 1-1.54 3.27q-1.22 1.35-2.92 2.02a10 10 0 0 1-3.55.68m-5.1-11.35h9.5q0-1.47-.5-2.67a4 4 0 0 0-1.55-1.9 4.6 4.6 0 0 0-2.62-.7 4.4 4.4 0 0 0-4.3 2.77 6 6 0 0 0-.53 2.5m22.68 11.35q-1.95 0-3.67-.62a6.4 6.4 0 0 1-4.3-5.33h3.46q.23 1.07.9 1.77.66.69 1.59 1.03t2 .34a5.7 5.7 0 0 0 2.89-.65q1.1-.64 1.1-1.98 0-.96-.6-1.54a4 4 0 0 0-1.86-.85l-3.74-.9A9 9 0 0 1 254 56.4q-1.4-1.2-1.42-3.33 0-1.65.83-2.94a5.5 5.5 0 0 1 2.46-2.02 10 10 0 0 1 4.05-.73q3.18 0 5.1 1.41a4.9 4.9 0 0 1 2 4.1h-3.36a3 3 0 0 0-1.17-2.02 4.3 4.3 0 0 0-2.6-.74q-1.68 0-2.74.67a2.2 2.2 0 0 0-1.07 2.02q0 .92.79 1.46.78.53 2.33.88l3.55.88q1.38.36 2.27.95.89.6 1.4 1.3t.7 1.47a5.4 5.4 0 0 1-.68 4.47 5.7 5.7 0 0 1-2.55 1.94q-1.65.68-3.95.68m17.46 0q-2.55 0-4.52-1.12a8 8 0 0 1-3.1-3.28 11 11 0 0 1-1.12-5.26q0-2.93 1.04-5.13a8 8 0 0 1 3-3.45 8.6 8.6 0 0 1 4.7-1.23 8 8 0 0 1 3.75.82 7.1 7.1 0 0 1 3.9 5.72h-3.37a4.2 4.2 0 0 0-2.12-3q-.9-.48-2.13-.48-2.25 0-3.68 1.65-1.41 1.65-1.41 5.06 0 3.12 1.32 4.97a4.4 4.4 0 0 0 3.83 1.85 4.2 4.2 0 0 0 3.54-1.81q.52-.76.68-1.66h3.3a7 7 0 0 1-3.9 5.55q-1.62.8-3.71.8m10.02-.36V47.74h3.72v3.84q.47-1.37 1.31-2.3a6 6 0 0 1 1.97-1.42 6 6 0 0 1 3.1-.44q.35.05.54.16v3.73q-.3-.12-.6-.14l-.65-.06a8 8 0 0 0-2.25.13q-1.01.22-1.75.73-.73.51-1.12 1.32a4.4 4.4 0 0 0-.39 1.92v11.27zm12.65 0V47.74h3.74v18.74zm-.09-22.37v-3.83h3.9v3.83zm17.13 22.73a8 8 0 0 1-2.68-.42 5.6 5.6 0 0 1-2.94-2.45 9 9 0 0 1-.63-1.34l-.42 3.84h-2.92V39.56h3.92V50.6q.26-.5.75-1.05.57-.6 1.25-1.05a7 7 0 0 1 1.75-.8q1-.3 2.25-.31 3.5 0 5.56 2.46 2.05 2.47 2.05 7.18 0 2.96-.88 5.18a7.4 7.4 0 0 1-2.66 3.42 7.5 7.5 0 0 1-4.4 1.23m-.76-2.92q2.15 0 3.5-1.67 1.34-1.67 1.34-5.36 0-3.2-1.26-4.88a4.3 4.3 0 0 0-3.63-1.69q-1.7 0-2.78.76a4.3 4.3 0 0 0-1.56 2.22q-.5 1.46-.52 3.59 0 3.75 1.16 5.39 1.15 1.64 3.75 1.64m11.2 2.55V47.75h3.74v18.74zm-.09-22.36V40.3h3.9v3.83zm7.55 22.37V47.74h3.78v2.7a6 6 0 0 1 3.13-2.52 8 8 0 0 1 2.62-.41q1.76 0 3.25.7 1.5.69 2.4 2.17.91 1.48.91 3.81v12.3h-3.88V54.6q0-2.01-1.08-2.99a4 4 0 0 0-2.78-.98q-1.12 0-2.17.38-1.04.39-1.67 1.15a3 3 0 0 0-.63 1.93v12.38zm27.4 6.2q-4.56 0-7.07-1.28-2.5-1.28-2.5-3.57 0-1 .48-1.7.48-.69 1.14-1.14.67-.45 1.23-.72t.72-.37l-.79-.46a3 3 0 0 1-.86-.76 2 2 0 0 1-.38-1.26q0-.9.87-1.68.86-.77 2.6-1.13a6.6 6.6 0 0 1-2.65-2.25 5.3 5.3 0 0 1 .09-6.17 6.5 6.5 0 0 1 2.9-2.04q1.89-.7 4.42-.7a10 10 0 0 1 3.11.4q1.24.42 2.3 1.17l.98-.4 2.87-1.16L373 47l-.02 3.37-3.26.6a6 6 0 0 1 .56 2.4 5.4 5.4 0 0 1-.89 3 6 6 0 0 1-2.66 2.18q-1.79.81-4.44.81l-1.33-.05q-1.69.04-2.32.39-.63.33-.63.73 0 .51.81.69t2.69.3l1.71.12q1.05.05 2.31.14 3.08.19 4.7 1.54 1.63 1.36 1.63 3.6 0 2.59-2.34 4.22-2.34 1.64-7.1 1.64m.67-2.38q2.49 0 3.76-.72a2.3 2.3 0 0 0 1.27-2.13q0-1.05-.82-1.72a4.3 4.3 0 0 0-2.45-.78l-5-.32q-.78-.03-1.48.32-.73.36-1.2 1-.47.65-.47 1.43 0 1.41 1.56 2.17 1.55.75 4.83.75m-.68-13.32q1.88 0 3.03-.92a3.2 3.2 0 0 0 1.15-2.64 3.4 3.4 0 0 0-1.15-2.74 4.6 4.6 0 0 0-3.03-.97q-1.9 0-3.08.98a3.4 3.4 0 0 0-1.17 2.73q0 1.67 1.12 2.61a4.7 4.7 0 0 0 3.13.95"/>
</svg>
